<?xml version="1.0" encoding="utf-8"?>
<!-- Generator: Adobe Illustrator 24.1.2, SVG Export Plug-In . SVG Version: 6.00 Build 0)  -->
<svg version="1.1" id="katman_1" xmlns="http://www.w3.org/2000/svg" xmlns:xlink="http://www.w3.org/1999/xlink" x="0px" y="0px"
	 viewBox="0 0 534 442" style="enable-background:new 0 0 534 442;" xml:space="preserve">
<style type="text/css">
	.st0{fill-rule:evenodd;clip-rule:evenodd;fill:#873F3F;}
	.st1{fill-rule:evenodd;clip-rule:evenodd;fill:#F5AC83;}
	.st2{fill-rule:evenodd;clip-rule:evenodd;fill:#EE9073;}
	.st3{fill-rule:evenodd;clip-rule:evenodd;fill:#BDBDBD;}
	.st4{fill-rule:evenodd;clip-rule:evenodd;fill:#37BC9B;}
	.st5{fill-rule:evenodd;clip-rule:evenodd;fill:#3C846E;}
	.st6{fill-rule:evenodd;clip-rule:evenodd;fill:#000003;}
	.st7{fill-rule:evenodd;clip-rule:evenodd;fill:#121212;}
	.st8{fill-rule:evenodd;clip-rule:evenodd;fill:#E9573F;}
	.st9{fill-rule:evenodd;clip-rule:evenodd;fill:#585777;}
	.st10{fill-rule:evenodd;clip-rule:evenodd;fill:#CCCCCC;}
	.st11{fill-rule:evenodd;clip-rule:evenodd;fill:#301814;}
	.st12{fill-rule:evenodd;clip-rule:evenodd;fill:#292828;}
	.st13{fill-rule:evenodd;clip-rule:evenodd;fill:#424242;}
	.st14{fill-rule:evenodd;clip-rule:evenodd;fill:#3B3A3A;}
	.st15{fill-rule:evenodd;clip-rule:evenodd;fill:#FFFFFF;}
	.st16{fill-rule:evenodd;clip-rule:evenodd;fill:#242525;}
	.st17{fill-rule:evenodd;clip-rule:evenodd;fill:#C8DEE1;}
	.st18{fill-rule:evenodd;clip-rule:evenodd;fill:#7A9297;}
	.st19{fill-rule:evenodd;clip-rule:evenodd;fill:#E9695B;}
	.st20{fill-rule:evenodd;clip-rule:evenodd;fill:#F08A71;}
	.st21{fill-rule:evenodd;clip-rule:evenodd;fill:#333333;}
</style>
<g>
	<polygon class="st0" points="370.7,213.2 354.7,434.8 361.8,434.8 383.3,223.6 504.1,223.6 525.6,434.8 532.7,434.8 516.7,213.2 	
		"/>
	<path class="st1" d="M91.3,143.2c-2.8-2.9-3.5-3.5-3.5-3.5s2.1-2.6,1.9-6.8c-0.2-4.2,3.1-5.2,2.4-6.2c-0.7-0.9-2.5-2-4.8,0.7
		c-1.6,1.8-1.3,2.6-2.8,3.9c0,0-0.7,0.1-1.8,0c-2.4-2.2-5.1-5.6-7.2-7.8c-3-3.1-3.7,0.3-2.4,1.7c1.3,1.4-2.8-1.7-3-0.1
		c-0.2,1.6,1.1,3.1,1.1,3.1s-3.2-2-3.2-0.4c0,1.6,1.9,4.1,1.9,4.1s-1.9-0.3-2.1,1.2c-0.1,0.4,0.6,1.5,1.7,2.7c3,3.6,3.9,5.3,6.8,7.3
		c1.1,0.8,4.4,2,6.3,3.6c2.9,2.4,4.6,4.9,5.9,2.2L91.3,143.2z"/>
	<path class="st2" d="M82.6,131.4c-0.7-0.7-1.3-1.4-2-2.1c-4.2,0.9-8.3,4.9-7.6,8.8C74.7,132.1,79.4,131,82.6,131.4z"/>
	<path class="st2" d="M91.3,143.2c-2.8-2.9-3.5-3.5-3.5-3.5s2.1-2.6,1.9-6.8c-0.2-4.2,3.1-5.2,2.4-6.2c-0.1-0.2-0.3-0.3-0.5-0.5
		c-0.2,0.7-1.1,0.1-2,2.3c-1.1,2.7-0.7,5.2-3.2,8.6c-2.2,3.1-4.7,6.4-9.3,6.7c1.5,0.8,3.9,1.9,5.5,3.2c2.9,2.4,4.6,4.9,5.9,2.2
		L91.3,143.2z"/>
	<g>
		<path class="st3" d="M209.8,430.6V276.4c0-0.9,0.8-1.7,1.7-1.7h1.3c1,0,1.7,0.8,1.7,1.7v154.2c0,0.9-0.8,1.7-1.7,1.7h-1.3
			C210.5,432.3,209.8,431.5,209.8,430.6z"/>
		<path class="st3" d="M210.4,305.6h4.7c3.5,0,6.3,2.8,6.3,6.3v6.1c0,3.5-2.8,6.3-6.3,6.3h-4.7c-3.5,0-6.3-2.8-6.3-6.3v-6.1
			C204.1,308.4,206.9,305.6,210.4,305.6z"/>
		<path class="st3" d="M208.9,423.3h7.7c1.9,0,3.4,1.5,3.4,3.4v2.5c0,1.8-1.5,3.4-3.4,3.4h-7.7c-1.9,0-3.4-1.5-3.4-3.4v-2.5
			C205.5,424.8,207,423.3,208.9,423.3z"/>
		<path class="st3" d="M192.3,427.9h40.8c2.9,0,5.2,2.3,5.2,5.2v3.8c0,2.8-2.3,5.2-5.2,5.2h-40.8c-2.9,0-5.2-2.3-5.2-5.2v-3.8
			C187.1,430.2,189.5,427.9,192.3,427.9z"/>
		<path class="st3" d="M178.9,305.6L178.9,305.6c0-2.5,2.1-4.5,4.6-4.5h57.4c2.5,0,4.6,2,4.6,4.5l0,0c0,2.5-2.1,4.5-4.6,4.5h-57.4
			C180.9,310.1,178.9,308.1,178.9,305.6z"/>
		<path class="st3" d="M166.6,298.7L166.6,298.7c0-4.2,3.5-7.6,7.7-7.6h75.6c4.2,0,7.7,3.4,7.7,7.6v0c0,4.2-3.5,7.6-7.7,7.6h-75.6
			C170,306.3,166.6,302.8,166.6,298.7z"/>
		<path class="st4" d="M276.9,298.8H147.4c-5,0-9.1-4-9.1-9l0,0c0-4.9,4.1-9,9.1-9h129.5c5,0,9.1,4,9.1,9l0,0
			C285.9,294.8,281.9,298.8,276.9,298.8z"/>
		<path class="st5" d="M305.4,298.8H233c-5,0-9.1-4-9.1-9l0,0c0-4.9,4.1-9,9.1-9h72.4c5,0,9.1,4,9.1,9l0,0
			C314.5,294.8,310.4,298.8,305.4,298.8z"/>
		<path class="st6" d="M207.9,10.3c0,0-28.5-4.8-27,27.8c1.5,32.6,4,37.8-5,54.3c-9,16.5-8,48.9,24.8,53.8
			c32.8,4.9,57.4-11.1,58.6-34.1c1.2-23-8.3-49-1.8-63.8C264,33.4,242.6,7.7,207.9,10.3z"/>
		<path class="st7" d="M207.9,10.3c0,0-20.1-3.4-25.6,14.8c-2.7,6.7-0.8,21.4-0.9,21.2c1.5,25.4,2.8,31.1-5.4,46.1
			c-9,16.5-8,48.9,24.8,53.8c0,0-18.9-7.7-17.3-26.7c1.5-19,18.4-36.5,18.6-49.7c0.3-13.2,45,0.4,45,0.4s0.2,13.7,1.8,23.4
			c1.7,9.7,6.1,31.1-5,44.7c9.2-6.3,14.8-15.5,15.4-26.2c1.2-23-8.3-49-1.8-63.8c4.1-9.4-2.9-23-17.2-31.2L209,10.3
			C208.6,10.3,208.3,10.3,207.9,10.3z"/>
		<path class="st8" d="M230.1,397.1l-5,3.8l3,31.6c0,0,0.1,2.3,1.2,2.3c1.1,0,1.8,0,1.8,0s0.8-0.2,0.7-1.6
			c-0.1-1.4-0.8-31.3-0.8-31.3L230.1,397.1z"/>
		<path class="st8" d="M343.1,397.1l-5,3.8l3,31.6c0,0,0.1,2.3,1.2,2.3c1.1,0,1.8,0,1.8,0s0.8-0.2,0.7-1.6
			c-0.1-1.4-0.8-31.3-0.8-31.3L343.1,397.1z"/>
		<path class="st8" d="M232,386.4c0,0-6.6,3.7-7.2,5c-0.6,1.3-2,7.3-0.4,9.5c1.6,2.2,6.2,3.9,7.2,5.2c1.1,1.3,6.6,24.6,6.6,24.6
			s0.9,4.2,5.7,4.2c4.8,0,28.9,0,28.9,0s1.4-0.3,1.3-2.1c0-1-0.9-2.5-1.6-3.7c-1.5-2.3-3.5-2.4-5.1-2.4l-15.1-4l-8.7-21.7l-5.6-15.4
			C238.1,385.5,233.8,384.1,232,386.4z"/>
		<path class="st1" d="M271.9,350.3c-2.8,4.3-26.2,35.4-25.4,38.7c1.2,4.8,5.3,18.3,6.7,23c3.4,11.5,7.9,10.9,9.9,10.9
			c2.1,0,3.8,1.3,4.4,3.7c0,0-12.8,0-16,0c-3.1,0-5.2-1.8-6.2-4.8c-1-3-7.4-29.3-8-31.9c-0.6-2.6-3.7-3.7-5.2-3.4l16.4-41.5
			L271.9,350.3z"/>
		<path class="st1" d="M252.1,378.4c-1.6,2.4-2.9,4.5-3.9,6.3c-2.3,0.1-5.8,0.4-6.4,0.6c-0.9,0.3-1.2,2.1-0.7,4.5
			c0.5,2.4,7.7,27.1,8.4,29.1c0.6,2,3.2,4,12.7,4c0.2,0,0.3,0,0.4,0h0c0.2,0,0.3,0,0.5,0c2.1,0,3.8,1.3,4.4,3.7c0,0-12.8,0-16,0
			c-3.1,0-5.2-1.8-6.2-4.8c-1-3-7.4-29.3-8-31.9c-0.6-2.6-3.7-3.7-5.2-3.4l6-15c1.8,0,3.3,0.1,4.3,0.7
			C245,373.4,250.9,374.9,252.1,378.4z"/>
		<path class="st8" d="M345.2,386.4c0,0-6.6,3.7-7.2,5c-0.6,1.3-2,7.3-0.4,9.5c1.6,2.2,6.2,3.9,7.2,5.2c1.1,1.3,6.6,24.6,6.6,24.6
			s0.9,4.2,5.7,4.2c4.8,0,28.9,0,28.9,0s1.4-0.3,1.3-2.1c0-1-0.9-2.5-1.6-3.7c-1.5-2.3-3.5-2.4-5.1-2.4l-15.1-4l-8.7-21.7l-5.6-15.4
			C351.2,385.5,346.9,384.1,345.2,386.4z"/>
		<path class="st8" d="M341.5,388.6c-1.6,1-3.2,2.2-3.5,2.8c-0.6,1.3-2,7.3-0.4,9.5c1.6,2.2,6.2,3.9,7.2,5.2
			c1.1,1.3,6.6,24.6,6.6,24.6s0.9,4.2,5.7,4.2c4.8,0,28.9,0,28.9,0s1.4-0.3,1.3-2.1c0-0.6-0.3-1.3-0.7-2.1h-24
			c-3.8,0-6.1-1.2-7.1-3.2c-1-2-9.2-33-10.4-35.2C344.7,391.1,343,389.8,341.5,388.6z"/>
		<path class="st1" d="M345.3,350.9c0,0,17.6,49.5,21,61.1c3.4,11.5,7.9,10.9,9.9,10.9c2.1,0,3.8,1.3,4.4,3.7c0,0-12.8,0-16,0
			c-3.1,0-5.2-1.8-6.2-4.8c-1-3-7.4-29.3-8-31.9c-0.6-2.6-3.7-3.7-5.2-3.4l-13.6-26.9L345.3,350.9z"/>
		<path class="st1" d="M345.3,350.9c0,0,1.5,4.2,3.7,10.4c-1.2,2.9-2.6,6.2-2.8,7.3c-0.5,2,15.5,48.8,16.2,50.5
			c0.7,1.7,2.1,3.7,13,3.7h0h0.1c0.3,0,0.5,0,0.7,0c2.1,0,3.8,1.3,4.4,3.7c0,0-12.8,0-16,0c-3.1,0-5.2-1.8-6.2-4.8
			c-1-3-7.4-29.3-8-31.9c-0.6-2.6-3.7-3.7-5.2-3.4l-13.6-26.9L345.3,350.9z"/>
		<path class="st9" d="M183.5,190.2l-16.6,11.2c0,0-23.9,26.8-20.8,47.9c3.1,21.1,12.2,31.5,40.3,31.5c28.1,0,78.5,0,80.3,0
			c1.8,0-37.1,89-38.2,92.9c-1.1,3.9,51.6,19.7,75.2,11c0,0,1.6-1,1.8-3.8c0.3-2.8,0.1-6.4,0.1-6.4s40-11.4,45.8-20.5
			c0,0,0.6-1.4,0-3.4c-0.5-1.5-16.5-55.9-33.2-88.1c-19.8-38.2-52-33.8-90.4-33.3c0,0,4.2-13.2,4.6-19.4
			C232.7,203.6,183.5,190.2,183.5,190.2z"/>
		<path class="st9" d="M183.5,190.2l-16.6,11.2c0,0-23.9,26.8-20.8,47.9c3.1,21.1,12.2,31.5,40.3,31.5c28.1,0,78.5,0,80.3,0
			c0,0,7.4-16.1,8.5-19.2c1.1-3.1,1.8-6.4,0.2-5.8c-1.6,0.6-3.1,15.6-34.6,15.6c-31.5,0-66.7-15.9-64.1-29.4
			c2.6-13.5,23.3-12.8,27.5-12.8c4.3,0,23.5,0,23.5,0s4.2-13.2,4.6-19.4C232.7,203.6,183.5,190.2,183.5,190.2z"/>
		<path class="st9" d="M305.6,374.5c0,0,12.9-3.7,25.1-8.5c-3.9-3.6-10.3-10-11.1-13.3c-1.1-4.8-8.2-59.3-8.9-59.4
			c-0.7-0.2-0.8,0.6-0.8,0.6L305.6,374.5z"/>
		<path class="st10" d="M239.6,105.6l10.5,10.5c0,0,37.4,55.9,39.8,57.5c2.4,1.7,3.7,1.8,6.8,0c3.1-1.8,28-34.3,29.1-34.6
			c1.1-0.3,8.4,4.6,8.8,6.1c0.4,1.4-27.5,44.9-33.2,48.7c-5.7,3.8-16,3.2-21.8-1c-5.8-4.2-31.8-28.4-31.8-28.4
			S229.8,116.9,239.6,105.6z"/>
		<path class="st10" d="M240.4,106.5c8.4,8.4,10.3,10.8,17.1,20.7c-0.3,8.8,4.6,35,4.6,38.9c0,3.8,16,23.2,25.2,25.6
			c9.2,2.4,20.4-10.8,25.5-18.4c5.1-7.6,14.8-22.2,15.5-23.4c0.5-0.9,2.5-3,2.3-8.3c2,1.4,3.8,2.9,4,3.6
			c0.4,1.4-27.5,44.9-33.2,48.7c-5.7,3.8-16,3.2-21.8-1c-5.8-4.2-31.8-28.4-31.8-28.4S230.7,117.7,240.4,106.5z"/>
		<path class="st9" d="M208.3,97.4c6.7,0.9,13.9,2.2,22.3,3.3c9.2,2.7,12.5,8.5,15.3,15.9c2.4,6.1,9.3,34.2,9.1,36.8
			c0.1,6-4,14.4-12.5,23.9c-3.6,12.7-8.9,33.6-9.7,37.7c-3.4,19-73.6-1.8-70-10.3c18-42,5.2-66,7.8-82.6c0.1-0.8,0.3-1.6,0.4-2.3
			l8.4-5.4l-2.8-4.8c0,0,9.6-8,29-11.5C206.6,97.7,207.5,97.5,208.3,97.4z"/>
		<path class="st9" d="M196.7,100c1.6,3.2,2.3,5.8,1,6.7c-4.2,3-1.7,42.5,2.3,45.9c4,3.4,30.2,10,40.2,11.2
			c10,1.2,14.3-6.6,14.4-6.6c-1.3,5.5-5.3,12.5-12.1,20.1c-1.3,4.7-2.9,10.6-4.4,16.3l-48-32.4c0,0-8.8,34.6-8.8,42.5
			c0,2.9,1.3,8.2,2.9,13.6c-12.8-4-22.7-9.2-21.3-12.5c18-42,5.2-66,7.8-82.6c0.1-0.8,0.3-1.6,0.4-2.3l8.4-5.4l-2.8-4.8
			C176.6,109.4,183.3,103.8,196.7,100z"/>
		<path class="st8" d="M228.3,388.6c-1.6,1-3.2,2.2-3.5,2.8c-0.6,1.3-2,7.3-0.4,9.5c1.6,2.2,6.2,3.9,7.2,5.2
			c1.1,1.3,6.6,24.6,6.6,24.6s0.9,4.2,5.7,4.2c4.8,0,28.9,0,28.9,0s1.4-0.3,1.3-2.1c0-0.6-0.3-1.3-0.7-2.1h-24
			c-3.8,0-6.1-1.2-7.1-3.2c-1-2-9.2-33-10.4-35.2C231.5,391.1,229.9,389.8,228.3,388.6z"/>
		<path class="st1" d="M209.3,70.5l-0.4,7c0,0-1.4,14.3-1.6,16.5c-0.2,1.9-3.6,3.7-8.7,4.3c-2.4,0.3,0.1,4.3,4.8,8.8
			c9.4,8.9,16.1,3.6,21.1,3.3c11.1-0.5,13.7-9.9,8.6-10.5c-1.5-0.2-3.4-0.8-4.9-2.8c-2.2-2.8-0.9-14.5,1.8-17.3
			C232.6,77,209.3,70.5,209.3,70.5z"/>
		<g>
			<g>
				<path class="st10" d="M224.5,110.5c-5.7,33.4-44.7-18.1-22.2-12.8C202.3,97.7,206.6,108.7,224.5,110.5z"/>
				<path class="st10" d="M233.1,100c0,0,1.1,8.1-8.6,10.5c0,0,3.6,10.7,10.1,9.2C241.1,118.2,241,98.4,233.1,100z"/>
			</g>
		</g>
		<path class="st1" d="M221.7,15.3L221.7,15.3c-14.7-0.3-26.9,11.4-27.2,26L194,65.4c-0.3,14.6,11.5,26.7,26.2,27l0,0
			c14.7,0.3,26.9-11.4,27.2-26l0.5-24.1C248.1,27.8,236.3,15.6,221.7,15.3z"/>
		<path class="st2" d="M221.7,15.3L221.7,15.3c-14.7-0.3-26.9,11.4-27.2,26L194,65.4c-0.3,14.6,11.5,26.7,26.2,27l0,0
			c0.5,0,1.1,0,1.6,0c-17.2-1-19.7-17.1-20.2-27.4c-0.5-10.4,4.8-21,7.9-25c3.1-4,10.3-1.6,13.9,3.4c3.6,5,11.3,9.4,11.5,9.5
			c0.1,0.1,3.9,0.2,3.9,0.2l3.1-11.1c0,0-7.1-15.7-11.8-25C227.5,15.9,224.6,15.4,221.7,15.3z"/>
		<path class="st6" d="M194.1,52.4l2.6,0.2c0,0,2.5,7.8-2.5,8.3l0.1-4.5c0-0.3,0-0.6-0.1-0.8V52.4z"/>
		<path class="st11" d="M244.9,52.6c0.4,0.2,0.8,0,1-0.3c0.2-0.4,0-0.8-0.3-1c0,0-4.3-2.3-8.1,0c-0.3,0.2-0.5,0.6-0.2,1
			c0.2,0.3,0.6,0.4,1,0.2C241.3,50.7,244.9,52.6,244.9,52.6z"/>
		<path class="st7" d="M216.4,22.6l-2,4c0,0-5.7-2.4-7.4,5.3c-1.7,7.7-5.2,28.5-22.3,22.2c0,0-0.5-25.6,8-32.9
			C201.4,13.9,216.4,22.6,216.4,22.6z"/>
		<path class="st12" d="M205.4,25.8l0.1,0c0.2,0.1,0.4,0.2,0.6,0.1c6.5-1.8,10.5,4.2,15.1,11.4c4.7,7.2,10.1,15.4,19.5,18.2
			c0.8,0.5,1.6,0.9,2.5,1.2c15.8,6.1,29-13.9,17.8-32.4C249,4.4,214.3-7.1,203.6,17C203.6,17,201.4,22.2,205.4,25.8L205.4,25.8z
			 M215.9,27.6c8.1,4.8,12.6,16.7,20,24.1c-5.9-3.7-9.9-9.7-13.4-15.2C220.3,33.1,218.2,29.9,215.9,27.6z"/>
		<path class="st13" d="M265.3,39.2c0-0.6,0-1.3,0-2c-2.9,1.8-8,3.6-15.3,1c-8.3-3.1-15.4-20.2-14.3-33.1c-5.8-1.8-11.7-2.2-17-1
			c2.7,7.3,9.1,21.1,21.9,32.8C250.4,46,259.2,43.5,265.3,39.2z"/>
		<path class="st7" d="M205.4,25.8l0.1,0c0.2,0.1,0.4,0.2,0.6,0.1c6.5-1.8,10.5,4.2,15.1,11.4c4.7,7.2,10.1,15.4,19.5,18.2
			c0.8,0.5,1.6,0.9,2.5,1.2c11,4.2,20.7-4.1,21.9-15.9c-0.1,0.6-2.4,10-10.4,11.1c-8.3,1.1-19.7-8.6-25.3-18.6
			c-5.6-10-13.2-13-18-13c-4.8,0.1-7.8-3.1-4.6-8.7c-1.2,1.5-2.3,3.3-3.2,5.4C203.6,17,201.4,22.2,205.4,25.8L205.4,25.8z
			 M215.9,27.6c8.1,4.8,12.6,16.7,20,24.1c-5.9-3.7-9.9-9.7-13.4-15.2C220.3,33.1,218.2,29.9,215.9,27.6z"/>
		<path class="st6" d="M205.2,38.8c-2.4,8.9-7.5,20.2-20.7,15.3c0,0,0-2.1,0.1-5.2C198.9,55.2,205.2,39,205.2,38.8z"/>
		<path class="st10" d="M174.3,111.9c-20,26.1-36.7,56-38.8,57.6c-2.4,1.9-3.7,2.1-7,0.5c-3.4-1.6-38.7-30-39.9-30.2
			c-1.2-0.2-7.5,6.1-7.8,7.6c-0.3,1.5,37.6,40.8,43.8,44.3c6.2,3.5,16.7,2.1,22.4-2.7c4.1-3.5,21-21.9,30-31.8
			c9.5-10.4,14.3-30.9,14.5-31.7c1.2-8,0.5-15.6-5-18.4C182.3,106,177.9,107.2,174.3,111.9z"/>
		<path class="st10" d="M85.4,141.9c-2.1,1.9-4.4,4.3-4.7,5.5c-0.3,1.2,37.6,40.8,43.8,44.3c6.2,3.5,16.7,2.1,22.4-2.7
			c4.1-3.5,21-21.9,30-31.8c9.5-10.4,14.3-30.8,14.5-31.6c0.6-4.1,0.7-8,0-11.3c0,6.4-1.4,15.2-4,19.2c-3.3,5.1-32.2,40.8-38.4,48
			c-6.2,7.2-17.5,9.7-22.9,6c-5.4-3.7-38.1-35.4-39.1-37.3C85.8,148.4,85.6,144.7,85.4,141.9z"/>
	</g>
	<g>
		<g>
			<polygon class="st0" points="40.7,213.2 24.6,434.8 31.7,434.8 53.4,223.6 174.8,223.6 196.4,434.8 203.6,434.8 187.4,213.2 			
				"/>
			<path class="st0" d="M97.2,201.1h423.1c3.7,0,6.8,3,6.8,6.7l0,0c0,3.7-3.1,6.7-6.8,6.7H97.2c-3.7,0-6.8-3-6.8-6.7l0,0
				C90.4,204.1,93.4,201.1,97.2,201.1z"/>
			<path class="st0" d="M24.6,201.1h179c3.7,0,6.8,3,6.8,6.7l0,0c0,3.7-3.1,6.7-6.8,6.7h-179c-3.7,0-6.8-3-6.8-6.7l0,0
				C17.8,204.1,20.8,201.1,24.6,201.1z"/>
		</g>
	</g>
	<g>
		<g>
			<path class="st14" d="M498.3,188.3H455c-1.8,0-3.4,0.7-4.6,1.9c-1.2,1.2-1.9,2.8-1.9,4.5c0,1.8,0.7,3.4,1.9,4.5
				c1.2,1.2,2.8,1.9,4.6,1.9h43.3c1.8,0,3.4-0.7,4.6-1.9c1.2-1.2,1.9-2.8,1.9-4.5c0-1.8-0.7-3.4-1.9-4.5
				C501.7,189,500.1,188.3,498.3,188.3z"/>
			<path class="st15" d="M401.4,189h55.4c3.1,0,5.7,2.6,5.7,5.7l0,0c0,3.1-2.6,5.7-5.7,5.7h-55.4V189z"/>
			<path class="st16" d="M401.4,188.3c-0.4,0-0.8,0.3-0.8,0.7c0,0.4,0.3,0.7,0.8,0.7h55.4c1.4,0,2.6,0.6,3.5,1.4
				c0.9,0.9,1.5,2.1,1.5,3.5c0,1.4-0.6,2.6-1.5,3.5c-0.9,0.9-2.1,1.4-3.5,1.4h-55.4c-0.4,0-0.8,0.3-0.8,0.7c0,0.4,0.3,0.7,0.8,0.7
				h55.4c1.8,0,3.4-0.7,4.6-1.9c1.2-1.2,1.9-2.8,1.9-4.5c0-1.8-0.7-3.4-1.9-4.5c-1.2-1.2-2.8-1.9-4.6-1.9H401.4z"/>
			<path class="st16" d="M496.3,194.7c0-1.8-0.7-3.4-1.9-4.5c-1.2-1.2-2.8-1.9-4.6-1.9h5.6c1.8,0,3.4,0.7,4.6,1.9
				c1.2,1.2,1.9,2.8,1.9,4.5c0,1.8-0.7,3.4-1.9,4.5c-1.2,1.2-2.8,1.9-4.6,1.9h-5.6c1.8,0,3.4-0.7,4.6-1.9
				C495.6,198.1,496.3,196.5,496.3,194.7z"/>
			<path class="st16" d="M488.2,194.7c0-1.8-0.7-3.4-1.9-4.5c-1.2-1.2-2.8-1.9-4.6-1.9h5.6c1.8,0,3.4,0.7,4.6,1.9
				c1.2,1.2,1.9,2.8,1.9,4.5c0,1.8-0.7,3.4-1.9,4.5c-1.2,1.2-2.8,1.9-4.6,1.9h-5.6c1.8,0,3.4-0.7,4.6-1.9
				C487.4,198.1,488.2,196.5,488.2,194.7z"/>
		</g>
		<g>
			<path class="st17" d="M412.8,177h37.9c1.6,0,3,0.6,4,1.7c1,1,1.7,2.4,1.7,4c0,1.5-0.6,3-1.7,4c-1,1-2.4,1.7-4,1.7h-37.9
				c-1.6,0-3-0.6-4-1.7c-1-1-1.7-2.4-1.7-4c0-1.5,0.6-3,1.7-4C409.8,177.6,411.2,177,412.8,177z"/>
			<path class="st15" d="M497.7,177.7h-48.5c-2.8,0-5,2.2-5,5l0,0c0,2.7,2.3,5,5,5h48.5V177.7z"/>
			<path class="st18" d="M497.7,177c0.4,0,0.7,0.3,0.7,0.7c0,0.4-0.3,0.7-0.7,0.7h-48.5c-1.2,0-2.3,0.5-3.1,1.3
				c-0.8,0.8-1.3,1.9-1.3,3c0,1.2,0.5,2.3,1.3,3c0.8,0.8,1.9,1.3,3.1,1.3h48.5c0.4,0,0.7,0.3,0.7,0.7c0,0.4-0.3,0.7-0.7,0.7h-48.5
				c-1.6,0-3-0.6-4-1.7c-1-1-1.7-2.4-1.7-4c0-1.5,0.6-3,1.7-4c1-1,2.4-1.7,4-1.7H497.7z"/>
			<path class="st18" d="M414.5,182.6c0-1.5,0.6-3,1.7-4c1-1,2.4-1.7,4-1.7h-4.9c-1.6,0-3,0.6-4,1.7c-1,1-1.7,2.4-1.7,4
				c0,1.5,0.6,3,1.7,4c1,1,2.4,1.7,4,1.7h4.9c-1.6,0-3-0.6-4-1.7C415.2,185.6,414.5,184.2,414.5,182.6z"/>
			<path class="st18" d="M421.7,182.6c0-1.5,0.6-3,1.7-4c1-1,2.4-1.7,4-1.7h-4.9c-1.6,0-3,0.6-4,1.7c-1,1-1.7,2.4-1.7,4
				c0,1.5,0.6,3,1.7,4c1,1,2.4,1.7,4,1.7h4.9c-1.6,0-3-0.6-4-1.7C422.3,185.6,421.7,184.2,421.7,182.6z"/>
		</g>
		<g>
			<path class="st19" d="M482.9,165.7h-28.2c-1.6,0-3,0.6-4,1.7c-1,1-1.7,2.4-1.7,4c0,1.5,0.6,3,1.7,4c1,1,2.4,1.7,4,1.7h28.2
				c1.6,0,3-0.6,4-1.7c1-1,1.7-2.4,1.7-4c0-1.5-0.6-3-1.7-4C485.9,166.4,484.5,165.7,482.9,165.7z"/>
			<path class="st15" d="M422.4,166.4h33.9c2.8,0,5,2.2,5,5l0,0c0,2.7-2.3,5-5,5h-33.9V166.4z"/>
			<path class="st20" d="M422.4,165.7c-0.4,0-0.7,0.3-0.7,0.7c0,0.4,0.3,0.7,0.7,0.7h33.9c1.2,0,2.3,0.5,3.1,1.3
				c0.8,0.8,1.3,1.9,1.3,3c0,1.2-0.5,2.3-1.3,3c-0.8,0.8-1.9,1.3-3.1,1.3h-33.9c-0.4,0-0.7,0.3-0.7,0.7c0,0.4,0.3,0.7,0.7,0.7h33.9
				c1.6,0,3-0.6,4-1.7c1-1,1.7-2.4,1.7-4c0-1.5-0.6-3-1.7-4c-1-1-2.4-1.7-4-1.7H422.4z"/>
			<path class="st20" d="M481.2,171.4c0-1.5-0.6-3-1.7-4c-1-1-2.4-1.7-4-1.7h4.9c1.6,0,3,0.6,4,1.7c1,1,1.7,2.4,1.7,4
				c0,1.5-0.6,3-1.7,4c-1,1-2.4,1.7-4,1.7h-4.9c1.6,0,3-0.6,4-1.7C480.5,174.3,481.2,172.9,481.2,171.4z"/>
			<path class="st20" d="M474,171.4c0-1.5-0.6-3-1.7-4c-1-1-2.4-1.7-4-1.7h4.9c1.6,0,3,0.6,4,1.7c1,1,1.7,2.4,1.7,4
				c0,1.5-0.6,3-1.7,4c-1,1-2.4,1.7-4,1.7h-4.9c1.6,0,3-0.6,4-1.7C473.4,174.3,474,172.9,474,171.4z"/>
		</g>
	</g>
	<g>
		<path class="st16" d="M414.6,201.1H287.1c-2.2,0-4.1-1.8-4.1-4l0,0c0-2.2,1.8-4,4.1-4h127.5c2.2,0,4,1.8,4,4l0,0
			C418.6,199.3,416.8,201.1,414.6,201.1z"/>
		<path class="st7" d="M414.6,201.1H287.1c-1.4,0-2.7-0.8-3.4-1.9c0.7-1.1,2-1.9,3.4-1.9h127.5c1.4,0,2.7,0.8,3.4,1.9
			C417.3,200.4,416,201.1,414.6,201.1z"/>
		<path class="st7" d="M417.7,193.1h-102c-2.9,0-5-2.4-4.6-5.3l8.1-65.5c0.4-2.9,3-5.3,5.9-5.3h102c2.9,0,5,2.4,4.6,5.3l-8.1,65.5
			C423.3,190.7,420.7,193.1,417.7,193.1z"/>
		<path class="st14" d="M417.7,193.1h-99c-2.9,0-5-2.4-4.6-5.3l8.1-65.5c0.4-2.9,3-5.3,5.9-5.3h99c2.9,0,5,2.4,4.6,5.3l-8.1,65.5
			C423.3,190.7,420.7,193.1,417.7,193.1z"/>
		<path class="st14" d="M310.3,201.1h-23.2c-2.2,0-4.1-1.8-4.1-4l0,0c0-2.2,1.8-4,4.1-4h23.2c2.2,0,4,1.8,4,4l0,0
			C314.3,199.3,312.5,201.1,310.3,201.1z"/>
		<path class="st6" d="M416.6,195.1H310.5c-1.1,0-2-0.9-2-2l0,0c0-1.1,0.9-2,2-2h106.1c1.1,0,2,0.9,2,2l0,0
			C418.6,194.2,417.7,195.1,416.6,195.1z"/>
		<path class="st21" d="M375.1,144.9c-5.6,0-10.6,4.5-11.2,10.1c-0.6,5.6,3.5,10.1,9.1,10.1c5.6,0,10.7-4.5,11.2-10.1
			C384.8,149.5,380.7,144.9,375.1,144.9z"/>
	</g>
</g>
</svg>
