<?xml version="1.0" encoding="utf-8"?>
<!-- Generator: Adobe Illustrator 24.1.2, SVG Export Plug-In . SVG Version: 6.00 Build 0)  -->
<svg version="1.1" id="Layer_1" xmlns="http://www.w3.org/2000/svg" xmlns:xlink="http://www.w3.org/1999/xlink" x="0px" y="0px"
	 viewBox="0 0 368.5 48" style="enable-background:new 0 0 368.5 48;" xml:space="preserve">
<style type="text/css">
	.st0{fill:#FFFFFF;}
</style>
<g>
	<path class="st0" d="M29.3,39.3H13.5l-3,7.3H2.4l15.2-34.1h7.8l15.3,34.1h-8.3L29.3,39.3z M26.8,33.3l-5.4-13.1L16,33.3H26.8z"/>
	<path class="st0" d="M44.2,12.5h15.5c11.2,0,18.8,6.7,18.8,17.1c0,10.3-7.7,17.1-18.8,17.1H44.2V12.5z M59.3,40.2
		c6.8,0,11.2-4,11.2-10.6C70.5,23,66.1,19,59.3,19h-7.2v21.2H59.3z"/>
	<path class="st0" d="M115.5,46.6l0-20.5l-10,16.9h-3.6l-10-16.4v20h-7.4V12.5H91l12.8,21.2l12.6-21.2h6.5l0.1,34.1H115.5z"/>
	<path class="st0" d="M130.9,5.4c0-2.3,1.7-4.1,4.1-4.1c2.4,0,4.1,1.8,4.1,4.1c0,2.4-1.7,4.1-4.1,4.1C132.6,9.5,130.9,7.7,130.9,5.4
		z M131,12.5h7.9v34.1H131V12.5z"/>
	<path class="st0" d="M178.3,12.5v34.1h-6.5l-17-20.7v20.7H147V12.5h6.5l17,20.7V12.5H178.3z"/>
	<path class="st0" d="M229.8,24.9c0,7.6-5.7,12.3-14.8,12.3h-6.9v9.4h-7.9V12.5h14.8C224.1,12.5,229.8,17.2,229.8,24.9z M221.8,24.9
		c0-3.8-2.4-5.9-7.3-5.9h-6.4v11.8h6.4C219.3,30.8,221.8,28.6,221.8,24.9z"/>
	<path class="st0" d="M256.1,39.3h-15.8l-3,7.3h-8.1l15.2-34.1h7.8l15.3,34.1h-8.3L256.1,39.3z M253.7,33.3l-5.4-13.1l-5.4,13.1
		H253.7z"/>
	<path class="st0" d="M302.3,12.5v34.1h-6.5l-17-20.7v20.7H271V12.5h6.5l17,20.7V12.5H302.3z"/>
	<path class="st0" d="M336.8,40.3v6.3h-26.4V12.5h25.8v6.3h-17.9v7.4h15.8v6.1h-15.8v7.9H336.8z"/>
	<path class="st0" d="M343.1,12.5h7.9v27.7h17.1v6.4h-25V12.5z"/>
</g>
</svg>
